<svg viewBox="0 0 400 280" xmlns="http://www.w3.org/2000/svg">
<defs>
  <linearGradient id="bg" x1="0" y1="0" x2="1" y2="1">
    <stop offset="0%" stop-color="#efebe9"/><stop offset="100%" stop-color="#d7ccc8"/>
  </linearGradient>
  <linearGradient id="cc" x1="0" y1="0" x2="0" y2="1">
    <stop offset="0%" stop-color="#5d4037"/><stop offset="100%" stop-color="#3e2723"/>
  </linearGradient>
</defs>
<rect width="400" height="280" fill="url(#bg)"/>
<ellipse cx="200" cy="248" rx="105" ry="11" fill="rgba(0,0,0,.12)"/>
<!-- bottom cookie -->
<ellipse cx="200" cy="225" rx="100" ry="20" fill="#a0622a"/>
<rect x="100" y="180" width="200" height="46" rx="4" fill="#a0622a"/>
<ellipse cx="200" cy="180" rx="100" ry="20" fill="#c4843a"/>
<!-- DDL filling -->
<rect x="103" y="188" width="194" height="20" fill="#c4802a"/>
<!-- top cookie -->
<ellipse cx="200" cy="190" rx="100" ry="20" fill="#a0622a"/>
<rect x="100" y="140" width="200" height="52" rx="4" fill="#a0622a"/>
<ellipse cx="200" cy="140" rx="100" ry="20" fill="#c4843a"/>
<!-- chocolate coating -->
<rect x="96" y="140" width="208" height="88" rx="12" fill="url(#cc)" opacity=".3"/>
<ellipse cx="200" cy="140" rx="104" ry="21" fill="#5d4037" opacity=".4"/>
<!-- shine -->
<ellipse cx="172" cy="132" rx="30" ry="9" fill="white" opacity=".22"/>
<!-- chocolate tag -->
<rect x="150" y="172" width="100" height="18" rx="9" fill="#3e2723" opacity=".7"/>
<text x="200" y="185" text-anchor="middle" font-family="Arial" font-size="11" fill="#ffcc80">CHOCOLATE</text>
</svg>