<svg viewBox="0 0 400 280" xmlns="http://www.w3.org/2000/svg">
<defs>
  <linearGradient id="bg" x1="0" y1="0" x2="1" y2="1">
    <stop offset="0%" stop-color="#fce4ec"/><stop offset="100%" stop-color="#f8bbd0"/>
  </linearGradient>
</defs>
<rect width="400" height="280" fill="url(#bg)"/>
<ellipse cx="200" cy="248" rx="118" ry="12" fill="rgba(0,0,0,.1)"/>
<!-- sponge layers -->
<rect x="82" y="185" width="236" height="55" rx="4" fill="#f9e4b8"/>
<ellipse cx="200" cy="185" rx="118" ry="14" fill="#fcecd0"/>
<!-- cream layer -->
<rect x="82" y="158" width="236" height="29" fill="white"/>
<!-- peach layer -->
<rect x="82" y="148" width="236" height="12" fill="#ffcc80"/>
<!-- top sponge -->
<rect x="82" y="112" width="236" height="38" rx="4" fill="#f9e4b8"/>
<ellipse cx="200" cy="112" rx="118" ry="14" fill="#fcecd0"/>
<!-- whipped cream top -->
<ellipse cx="200" cy="112" rx="118" ry="14" fill="white"/>
<ellipse cx="148" cy="102" rx="36" ry="19" fill="white"/>
<ellipse cx="200" cy="97" rx="36" ry="19" fill="white"/>
<ellipse cx="252" cy="102" rx="36" ry="19" fill="white"/>
<!-- peach slices on top -->
<ellipse cx="163" cy="94" rx="18" ry="10" fill="#ffb74d"/>
<ellipse cx="200" cy="89" rx="18" ry="10" fill="#ffb74d"/>
<ellipse cx="237" cy="94" rx="18" ry="10" fill="#ffb74d"/>
<!-- peach details -->
<path d="M155,94 Q163,86 171,94" stroke="#e65100" stroke-width="1.5" fill="none"/>
<path d="M192,89 Q200,81 208,89" stroke="#e65100" stroke-width="1.5" fill="none"/>
<path d="M229,94 Q237,86 245,94" stroke="#e65100" stroke-width="1.5" fill="none"/>
<!-- meringue bits -->
<circle cx="136" cy="100" r="7" fill="white" stroke="#eee" stroke-width="1"/>
<circle cx="268" cy="100" r="7" fill="white" stroke="#eee" stroke-width="1"/>
<circle cx="130" cy="115" r="5" fill="white"/>
<circle cx="272" cy="115" r="5" fill="white"/>
</svg>