<svg viewBox="0 0 400 280" xmlns="http://www.w3.org/2000/svg">
<defs>
  <linearGradient id="bg" x1="0" y1="0" x2="1" y2="1">
    <stop offset="0%" stop-color="#fff8e1"/><stop offset="100%" stop-color="#ffecb3"/>
  </linearGradient>
</defs>
<rect width="400" height="280" fill="url(#bg)"/>
<ellipse cx="200" cy="248" rx="98" ry="11" fill="rgba(0,0,0,.1)"/>
<!-- chipa ring body -->
<circle cx="200" cy="178" r="88" fill="#e8b850"/>
<circle cx="200" cy="178" r="52" fill="url(#bg)"/>
<!-- texture ring -->
<circle cx="200" cy="178" r="88" fill="none" stroke="#f0c860" stroke-width="10" opacity=".45"/>
<circle cx="200" cy="178" r="70" fill="none" stroke="#d4980a" stroke-width="4" opacity=".25"/>
<!-- cheese bubbles -->
<circle cx="150" cy="112" r="9" fill="#f0c860" opacity=".8"/>
<circle cx="200" cy="103" r="8" fill="#f0c860" opacity=".75"/>
<circle cx="250" cy="112" r="9" fill="#f0c860" opacity=".8"/>
<circle cx="272" cy="148" r="8" fill="#f0c860" opacity=".75"/>
<circle cx="268" cy="202" r="9" fill="#f0c860" opacity=".8"/>
<circle cx="200" cy="255" r="7" fill="#f0c860" opacity=".7"/>
<circle cx="130" cy="200" r="9" fill="#f0c860" opacity=".8"/>
<circle cx="128" cy="148" r="8" fill="#f0c860" opacity=".75"/>
<!-- shine arc -->
<path d="M128,122 Q165,105 200,110 Q235,115 272,128" stroke="white" stroke-width="5" fill="none" stroke-linecap="round" opacity=".4"/>
<!-- golden tips -->
<circle cx="150" cy="112" r="5" fill="#e65100" opacity=".4"/>
<circle cx="250" cy="112" r="5" fill="#e65100" opacity=".4"/>
</svg>