<svg viewBox="0 0 400 280" xmlns="http://www.w3.org/2000/svg">
<defs>
  <linearGradient id="bg" x1="0" y1="0" x2="1" y2="1">
    <stop offset="0%" stop-color="#fff8e1"/><stop offset="100%" stop-color="#ffecb3"/>
  </linearGradient>
</defs>
<rect width="400" height="280" fill="url(#bg)"/>
<ellipse cx="200" cy="248" rx="108" ry="11" fill="rgba(0,0,0,.1)"/>
<!-- bar base -->
<rect x="92" y="160" width="216" height="84" rx="8" fill="#c4873a"/>
<!-- filling layers -->
<rect x="92" y="175" width="216" height="28" fill="#d4982a"/>
<rect x="92" y="160" width="216" height="17" fill="#c4873a"/>
<!-- coconut top -->
<rect x="92" y="145" width="216" height="17" fill="#fff9e6"/>
<!-- top crumble -->
<rect x="92" y="132" width="216" height="15" rx="4" fill="#e8c880"/>
<!-- crumble dots -->
<circle cx="120" cy="139" r="5" fill="#d4a840"/>
<circle cx="145" cy="135" r="4" fill="#d4a840"/>
<circle cx="168" cy="140" r="5" fill="#d4a840"/>
<circle cx="195" cy="134" r="4" fill="#d4a840"/>
<circle cx="222" cy="139" r="5" fill="#d4a840"/>
<circle cx="248" cy="135" r="4" fill="#d4a840"/>
<circle cx="272" cy="140" r="5" fill="#d4a840"/>
<!-- DDL drizzle -->
<path d="M96,178 Q150,170 200,178 Q250,186 302,172" stroke="#c4802a" stroke-width="4" fill="none" stroke-linecap="round"/>
<!-- sugar glaze top -->
<path d="M100,148 Q160,140 200,145 Q240,150 298,142" stroke="white" stroke-width="3" fill="none" stroke-linecap="round" opacity=".6"/>
</svg>