<svg viewBox="0 0 400 280" xmlns="http://www.w3.org/2000/svg">
<defs>
  <linearGradient id="bg" x1="0" y1="0" x2="1" y2="1">
    <stop offset="0%" stop-color="#fffde7"/><stop offset="100%" stop-color="#fff9c4"/>
  </linearGradient>
</defs>
<rect width="400" height="280" fill="url(#bg)"/>
<ellipse cx="200" cy="248" rx="118" ry="11" fill="rgba(0,0,0,.1)"/>
<!-- many thin pastry layers with DDL -->
<rect x="85" y="218" width="230" height="24" rx="4" fill="#f5e0a8"/>
<rect x="85" y="206" width="230" height="14" fill="#c4802a"/>
<rect x="85" y="192" width="230" height="16" fill="#f5e0a8"/>
<rect x="85" y="180" width="230" height="14" fill="#c4802a"/>
<rect x="85" y="166" width="230" height="16" fill="#f5e0a8"/>
<rect x="85" y="154" width="230" height="14" fill="#c4802a"/>
<rect x="85" y="140" width="230" height="16" fill="#f5e0a8"/>
<ellipse cx="200" cy="140" rx="115" ry="14" fill="#f5e0a8"/>
<!-- meringue on top -->
<ellipse cx="200" cy="140" rx="115" ry="14" fill="white"/>
<ellipse cx="148" cy="128" rx="40" ry="20" fill="white"/>
<ellipse cx="200" cy="124" rx="40" ry="20" fill="white"/>
<ellipse cx="252" cy="128" rx="40" ry="20" fill="white"/>
<ellipse cx="175" cy="112" rx="28" ry="16" fill="white"/>
<ellipse cx="225" cy="112" rx="28" ry="16" fill="white"/>
<ellipse cx="200" cy="100" rx="24" ry="14" fill="white"/>
<!-- toasted -->
<circle cx="148" cy="114" r="5" fill="#d4a017" opacity=".65"/>
<circle cx="200" cy="90" r="5" fill="#d4a017" opacity=".65"/>
<circle cx="252" cy="114" r="5" fill="#d4a017" opacity=".65"/>
<!-- DDL layer sides visible -->
<rect x="83" y="154" width="4" height="90" fill="#c4802a" opacity=".7"/>
<rect x="313" y="154" width="4" height="90" fill="#c4802a" opacity=".7"/>
</svg>