<svg viewBox="0 0 400 280" xmlns="http://www.w3.org/2000/svg">
<defs>
  <linearGradient id="bg" x1="0" y1="0" x2="1" y2="1">
    <stop offset="0%" stop-color="#fff0f5"/><stop offset="100%" stop-color="#ffd6e7"/>
  </linearGradient>
</defs>
<rect width="400" height="280" fill="url(#bg)"/>
<!-- plate shadow -->
<ellipse cx="200" cy="248" rx="118" ry="12" fill="rgba(0,0,0,.1)"/>
<!-- layers bottom→top -->
<rect x="82" y="180" width="236" height="60" rx="6" fill="#e8c89a"/>
<ellipse cx="200" cy="180" rx="118" ry="14" fill="#f0d4a8"/>
<rect x="82" y="148" width="236" height="34" fill="#fff5ee"/>
<rect x="82" y="136" width="236" height="14" fill="#f08888"/>
<rect x="82" y="108" width="236" height="30" fill="#e8c89a"/>
<ellipse cx="200" cy="108" rx="118" ry="14" fill="#f0d4a8"/>
<!-- cream top -->
<ellipse cx="200" cy="108" rx="118" ry="14" fill="#fffdf8"/>
<ellipse cx="150" cy="100" rx="28" ry="17" fill="white"/>
<ellipse cx="200" cy="96" rx="28" ry="17" fill="white"/>
<ellipse cx="250" cy="100" rx="28" ry="17" fill="white"/>
<!-- strawberries -->
<ellipse cx="150" cy="88" rx="11" ry="13" fill="#e83030"/>
<path d="M145,77 Q150,68 155,77" fill="#4caf50"/>
<ellipse cx="200" cy="84" rx="11" ry="13" fill="#e83030"/>
<path d="M195,73 Q200,64 205,73" fill="#4caf50"/>
<ellipse cx="250" cy="88" rx="11" ry="13" fill="#e83030"/>
<path d="M245,77 Q250,68 255,77" fill="#4caf50"/>
<!-- choco drips -->
<path d="M104,120 Q102,135 105,148" stroke="#7b4a1e" stroke-width="4" fill="none" stroke-linecap="round"/>
<path d="M290,118 Q292,133 289,148" stroke="#7b4a1e" stroke-width="4" fill="none" stroke-linecap="round"/>
</svg>